HIERARCHY
ROOT joint_0
{
	OFFSET 0.000000 0.000000 0.000000
	CHANNELS 6 Xposition Yposition Zposition Zrotation Yrotation Xrotation 
	JOINT joint_1
	{
		OFFSET 14.113007 -2.961990 123.953979
		CHANNELS 3 Zrotation Yrotation Xrotation
		JOINT joint_2
		{
			OFFSET 0.764000 -2.434006 113.871948
			CHANNELS 3 Zrotation Yrotation Xrotation
			JOINT joint_3
			{
				OFFSET 0.186996 -2.169998 113.753052
				CHANNELS 3 Zrotation Yrotation Xrotation
				JOINT joint_4
				{
					OFFSET 16.096001 -2.720001 160.853027
					CHANNELS 3 Zrotation Yrotation Xrotation
					JOINT joint_5
					{
						OFFSET 34.392006 -0.188995 92.567017
						CHANNELS 3 Zrotation Yrotation Xrotation
						End Site
						{
							OFFSET 0.000000 0.000000 0.000000
						}
					}
				}
				JOINT joint_6
				{
					OFFSET 9.183998 -36.684006 89.597046
					CHANNELS 3 Zrotation Yrotation Xrotation
					JOINT joint_7
					{
						OFFSET 0.486000 -164.365997 -28.984009
						CHANNELS 3 Zrotation Yrotation Xrotation
						JOINT joint_8
						{
							OFFSET 38.899002 -34.967010 -291.651978
							CHANNELS 3 Zrotation Yrotation Xrotation
							JOINT joint_9
							{
								OFFSET 41.714005 -45.890991 -258.857056
								CHANNELS 3 Zrotation Yrotation Xrotation
								End Site
								{
									OFFSET 0.000000 0.000000 0.000000
								}
							}
						}
					}
				}
				JOINT joint_10
				{
					OFFSET 8.867004 33.650002 90.817993
					CHANNELS 3 Zrotation Yrotation Xrotation
					JOINT joint_11
					{
						OFFSET 0.018997 164.299999 -29.368042
						CHANNELS 3 Zrotation Yrotation Xrotation
						JOINT joint_12
						{
							OFFSET 29.440994 30.887997 -293.216919
							CHANNELS 3 Zrotation Yrotation Xrotation
							JOINT joint_13
							{
								OFFSET 46.174011 54.490005 -256.422058
								CHANNELS 3 Zrotation Yrotation Xrotation
								End Site
								{
									OFFSET 0.000000 0.000000 0.000000
								}
							}
						}
					}
				}
			}
		}
	}
	JOINT joint_14
	{
		OFFSET -2.264000 -89.466995 -116.150024
		CHANNELS 3 Zrotation Yrotation Xrotation
		JOINT joint_15
		{
			OFFSET -16.400993 -17.452988 -493.781982
			CHANNELS 3 Zrotation Yrotation Xrotation
			JOINT joint_16
			{
				OFFSET -50.497004 -13.404022 -424.754013
				CHANNELS 3 Zrotation Yrotation Xrotation
				JOINT joint_17
				{
					OFFSET 198.546007 -19.341003 -89.309000
					CHANNELS 3 Zrotation Yrotation Xrotation
					End Site
					{
						OFFSET 0.000000 0.000000 0.000000
					}
				}
			}
		}
	}
	JOINT joint_18
	{
		OFFSET -0.867996 96.016006 -110.817993
		CHANNELS 3 Zrotation Yrotation Xrotation
		JOINT joint_19
		{
			OFFSET -10.130997 24.658998 -493.645020
			CHANNELS 3 Zrotation Yrotation Xrotation
			JOINT joint_20
			{
				OFFSET -48.871004 19.434999 -424.714005
				CHANNELS 3 Zrotation Yrotation Xrotation
				JOINT joint_21
				{
					OFFSET 195.579996 24.926001 -94.327003
					CHANNELS 3 Zrotation Yrotation Xrotation
					End Site
					{
						OFFSET 0.000000 0.000000 0.000000
					}
				}
			}
		}
	}
}
MOTION
Frames: 13
Frame Time: 0.016667
142.963000 -149.578000 1153.764040 -2.073530 1.659153 -1.055915 0.481072 1.014979 1.070545 0.461482 -0.144681 -0.181494 0.467691 0.212013 0.175391 -0.219698 -1.332608 0.584571 0.000000 0.000000 0.000000 -0.896627 -0.776820 0.941532 0.317530 -0.991023 0.882850 0.262375 -1.269443 0.223691 0.000000 0.000000 0.000000 -2.736847 -0.690284 -1.376831 -0.099348 -0.216923 1.495258 -0.462755 -1.819994 -0.441263 0.000000 0.000000 0.000000 9.607261 -1.143415 0.737696 9.380049 2.795223 2.990522 9.432717 1.529662 4.359222 0.000000 0.000000 0.000000 8.661239 -1.244655 0.889542 8.780040 1.553000 2.127107 8.754117 2.988057 3.804109 0.000000 0.000000 0.000000 
143.108000 -149.660000 1153.482060 -2.024258 1.645620 -1.042852 0.487150 0.998751 1.064224 0.468012 -0.144942 -0.180286 0.474222 0.211664 0.175334 -0.220301 -1.364927 0.585912 0.000000 0.000000 0.000000 -0.895687 -0.705351 0.976646 0.290803 -0.914737 0.867971 0.208202 -1.051101 0.129802 0.000000 0.000000 0.000000 -2.670654 -0.551451 -1.403624 -0.042850 -0.079743 1.496756 -0.375558 -1.534392 -0.286900 0.000000 0.000000 0.000000 9.578323 -1.098155 0.738712 9.352943 2.787495 2.986938 9.409384 1.443154 4.340037 0.000000 0.000000 0.000000 8.647368 -1.222534 0.884415 8.765462 1.564611 2.126168 8.735134 2.904253 3.805469 0.000000 0.000000 0.000000 
143.168000 -149.787000 1153.214970 -1.974282 1.636421 -1.034087 0.495907 0.978533 1.059213 0.477343 -0.142200 -0.176606 0.483460 0.209090 0.173585 -0.219667 -1.400258 0.583946 0.000000 0.000000 0.000000 -0.900511 -0.637582 1.012557 0.262767 -0.842970 0.843268 0.150856 -0.830795 0.018046 0.000000 0.000000 0.000000 -2.613622 -0.426033 -1.436868 0.019401 0.046752 1.528571 -0.280954 -1.219011 -0.127877 0.000000 0.000000 0.000000 9.552201 -1.071554 0.744820 9.327679 2.794777 2.985258 9.388938 1.358731 4.322343 0.000000 0.000000 0.000000 8.628039 -1.204284 0.898576 8.746226 1.569732 2.102787 8.708488 2.822328 3.803106 0.000000 0.000000 0.000000 
143.151990 -149.940000 1152.956050 -1.923163 1.629694 -1.026805 0.505381 0.958001 1.054769 0.487351 -0.141046 -0.172551 0.493427 0.207546 0.170938 -0.218179 -1.438161 0.579703 0.000000 0.000000 0.000000 -0.906520 -0.573273 1.047517 0.233653 -0.774707 0.809307 0.091532 -0.611279 -0.107210 0.000000 0.000000 0.000000 -2.563384 -0.309151 -1.473107 0.085961 0.166725 1.580352 -0.180485 -0.886971 0.042190 0.000000 0.000000 0.000000 9.527085 -1.055617 0.753071 9.302960 2.808137 2.983809 9.369300 1.276631 4.305261 0.000000 0.000000 0.000000 8.606242 -1.188693 0.921324 8.724751 1.567884 2.068155 8.678311 2.743597 3.798774 0.000000 0.000000 0.000000 
143.073000 -150.089000 1152.723020 -1.866349 1.620111 -1.016292 0.511769 0.943114 1.049245 0.494167 -0.138617 -0.170035 0.500165 0.205492 0.169578 -0.216532 -1.469910 0.575092 0.000000 0.000000 0.000000 -0.909655 -0.515749 1.075243 0.205498 -0.712885 0.772751 0.032835 -0.405237 -0.243794 0.000000 0.000000 0.000000 -2.522177 -0.199431 -1.506120 0.152495 0.281127 1.634045 -0.079272 -0.564311 0.225237 0.000000 0.000000 0.000000 9.502108 -1.038888 0.755748 9.278175 2.819448 2.985263 9.349758 1.200293 4.288827 0.000000 0.000000 0.000000 8.583255 -1.176757 0.938461 8.702204 1.568609 2.037875 8.648368 2.676358 3.793130 0.000000 0.000000 0.000000 
142.937000 -150.223010 1152.517940 -1.799737 1.606125 -0.998565 0.512942 0.938655 1.039088 0.495436 -0.139193 -0.167960 0.501479 0.206922 0.167742 -0.215913 -1.493860 0.573318 0.000000 0.000000 0.000000 -0.907761 -0.466459 1.093439 0.178937 -0.658671 0.738264 -0.026056 -0.213318 -0.397473 0.000000 0.000000 0.000000 -2.493187 -0.095847 -1.529136 0.218562 0.391447 1.678122 0.024078 -0.252279 0.430563 0.000000 0.000000 0.000000 9.476960 -1.015879 0.746221 9.253018 2.824009 2.992293 9.330308 1.127691 4.272841 0.000000 0.000000 0.000000 8.558430 -1.169726 0.942207 8.677923 1.576467 2.018577 8.619093 2.623515 3.785971 0.000000 0.000000 0.000000 
142.738010 -150.353000 1152.338010 -1.727140 1.589169 -0.977490 0.510928 0.939952 1.027123 0.493394 -0.138716 -0.165817 0.499458 0.208066 0.166213 -0.215397 -1.510232 0.571891 0.000000 0.000000 0.000000 -0.902857 -0.423942 1.103927 0.153352 -0.610867 0.701587 -0.084375 -0.034463 -0.562258 0.000000 0.000000 0.000000 -2.473321 0.000762 -1.548005 0.284314 0.496314 1.722590 0.127997 0.050249 0.648234 0.000000 0.000000 0.000000 9.451763 -0.991764 0.730998 9.227624 2.826327 3.002174 9.310786 1.060362 4.257378 0.000000 0.000000 0.000000 8.532184 -1.166407 0.940166 8.652344 1.587164 2.003940 8.589841 2.581761 3.777444 0.000000 0.000000 0.000000 
142.470000 -150.479000 1152.191040 -1.657386 1.569653 -0.959330 0.509392 0.945083 1.021665 0.491733 -0.140728 -0.165208 0.497900 0.211256 0.165327 -0.214779 -1.520251 0.570240 0.000000 0.000000 0.000000 -0.898227 -0.388787 1.108846 0.129382 -0.570779 0.656468 -0.136301 0.119146 -0.715364 0.000000 0.000000 0.000000 -2.455731 0.085916 -1.569136 0.345719 0.589300 1.778671 0.223084 0.323667 0.849757 0.000000 0.000000 0.000000 9.427659 -0.971884 0.719898 9.203338 2.830736 3.010005 9.291534 1.005541 4.243326 0.000000 0.000000 0.000000 8.507988 -1.165740 0.939967 8.628947 1.597369 1.990620 8.563471 2.550595 3.768997 0.000000 0.000000 0.000000 
142.129000 -150.600010 1152.086060 -1.592862 1.548561 -0.947203 0.508398 0.951953 1.027240 0.490659 -0.142207 -0.166651 0.496907 0.214041 0.166059 -0.213539 -1.520022 0.566972 0.000000 0.000000 0.000000 -0.891510 -0.361353 1.107190 0.106824 -0.538328 0.599311 -0.180528 0.244896 -0.851468 0.000000 0.000000 0.000000 -2.435027 0.158858 -1.596591 0.402113 0.668584 1.851315 0.307329 0.565164 1.027924 0.000000 0.000000 0.000000 9.404130 -0.960750 0.718446 9.179655 2.841579 3.012578 9.271556 0.967528 4.230674 0.000000 0.000000 0.000000 8.487293 -1.168979 0.945068 8.609306 1.605980 1.977061 8.541376 2.531818 3.761087 0.000000 0.000000 0.000000 
141.720000 -150.717000 1152.012940 -1.530579 1.525178 -0.937894 0.508202 0.960979 1.039244 0.490379 -0.143999 -0.169857 0.496724 0.217595 0.168589 -0.211811 -1.512740 0.562436 0.000000 0.000000 0.000000 -0.887498 -0.340797 1.098262 0.085981 -0.513550 0.534763 -0.218446 0.345479 -0.976190 0.000000 0.000000 0.000000 -2.418543 0.220476 -1.625302 0.453811 0.736420 1.932935 0.382575 0.777688 1.189847 0.000000 0.000000 0.000000 9.381271 -0.953933 0.721081 9.156651 2.854543 3.013096 9.251455 0.941587 4.219208 0.000000 0.000000 0.000000 8.468367 -1.175177 0.951847 8.591585 1.614171 1.964889 8.521916 2.523582 3.753144 0.000000 0.000000 0.000000 
141.248990 -150.836000 1151.952030 -1.470226 1.496486 -0.929442 0.508648 0.971987 1.051827 0.490697 -0.145901 -0.172747 0.497115 0.219709 0.170374 -0.211281 -1.496542 0.561148 0.000000 0.000000 0.000000 -0.885758 -0.325888 1.087320 0.067406 -0.495235 0.466414 -0.248947 0.419716 -1.083898 0.000000 0.000000 0.000000 -2.403894 0.272259 -1.646691 0.497720 0.793295 2.015305 0.444102 0.947624 1.326157 0.000000 0.000000 0.000000 9.360907 -0.943270 0.723710 9.136405 2.862927 3.014000 9.233669 0.918799 4.209127 0.000000 0.000000 0.000000 8.448908 -1.180308 0.959258 8.573355 1.624750 1.955396 8.502479 2.518539 3.744802 0.000000 0.000000 0.000000 
140.715000 -150.961000 1151.900020 -1.410502 1.460806 -0.921069 0.510986 0.984310 1.063191 0.492880 -0.147477 -0.175356 0.499374 0.222397 0.172524 -0.211963 -1.470396 0.563146 0.000000 0.000000 0.000000 -0.890680 -0.316424 1.072446 0.051521 -0.484023 0.394660 -0.270889 0.463929 -1.171529 0.000000 0.000000 0.000000 -2.396641 0.313771 -1.654905 0.532396 0.839518 2.093988 0.489798 1.068938 1.432852 0.000000 0.000000 0.000000 9.344290 -0.924941 0.724141 9.120251 2.863543 3.017253 9.219812 0.895618 4.200795 0.000000 0.000000 0.000000 8.426846 -1.184121 0.967026 8.552701 1.641642 1.950195 8.481284 2.514859 3.735406 0.000000 0.000000 0.000000 
140.119000 -151.087010 1151.859010 -1.353069 1.420055 -0.913533 0.514867 0.998063 1.075449 0.496595 -0.148510 -0.178095 0.503117 0.223031 0.174470 -0.213718 -1.435398 0.568048 0.000000 0.000000 0.000000 -0.900833 -0.312002 1.054562 0.037999 -0.479203 0.319594 -0.285262 0.481191 -1.241831 0.000000 0.000000 0.000000 -2.394122 0.345322 -1.654091 0.559050 0.875170 2.170757 0.521742 1.148398 1.513628 0.000000 0.000000 0.000000 9.330204 -0.902989 0.724464 9.106884 2.859599 3.020868 9.208292 0.875572 4.193854 0.000000 0.000000 0.000000 8.404481 -1.186859 0.975357 8.531748 1.660456 1.947386 8.460274 2.514239 3.725707 0.000000 0.000000 0.000000 
